<?xml version="1.0" encoding="UTF-8"?>
<svg xmlns="http://www.w3.org/2000/svg" xmlns:xlink="http://www.w3.org/1999/xlink" width="148px" height="52px" viewBox="0 0 148 52" version="1.1">
    <!-- Generator: Sketch 51.3 (57544) - http://www.bohemiancoding.com/sketch -->
    <title>Logo / Example Copy</title>
    <desc>Created with Sketch.</desc>
    <defs/>
    <g id="⚙️-Symbols" stroke="none" stroke-width="1" fill="none" fill-rule="evenodd">
        <g id="Navigation-/-Double-/-message" transform="translate(-157.000000, -56.000000)">
            <g id="Logo-/-Example-/-White" transform="translate(157.000000, 53.000000)">
                <g id="go-ahead-london" transform="translate(0.000000, 2.900000)">
                    <g id="Group-4" fill="#FFFFFF" fill-rule="nonzero">
                        <path d="M62.6152672,23.8766667 C53.8625954,23.8766667 47.610687,30.16 47.610687,38.9566667 C47.610687,46.69 52.7083969,51.8133333 60.6916031,51.8133333 C69.8290076,51.8133333 75.9847328,45.3366667 75.9847328,36.83 C75.9847328,29 70.7908397,23.8766667 62.6152672,23.8766667 M62.7114504,30.74 C66.270229,30.74 68.3862595,32.9633333 68.3862595,36.9266667 C68.3862595,41.76 65.3083969,44.95 60.9801527,44.95 C57.421374,44.95 55.3053435,42.63 55.3053435,38.86 C55.3053435,34.1233333 58.1908397,30.74 62.7114504,30.74" id="Fill-1"/>
                        <path d="M47.0335878,11.02 C42.9938931,4.15666667 36.2610687,0.773333333 27.0274809,0.773333333 C18.7557252,0.773333333 11.8305344,3.67333333 7.11755725,9.08666667 C2.59694656,14.3066667 0,21.2666667 0,28.2266667 C0,42.34 9.23358779,51.5233333 23.9496183,51.5233333 C38.4732824,51.5233333 47.7068702,41.9533333 48.6687023,24.94 L26.8351145,24.94 L25.7770992,33.4466667 L37.1267176,33.4466667 C35.1068702,39.44 30.3938931,42.8233333 24.4305344,42.8233333 C15.9664122,42.8233333 10.1954198,37.3133333 10.1954198,28.2266667 C10.1954198,17.3033333 17.2167939,9.37666667 26.8351145,9.37666667 C32.0290076,9.28 36.4534351,11.89 39.2427481,16.6266667 L47.0335878,11.02 Z" id="Fill-3"/>
                    </g>
                    <polyline id="Fill-5" fill="#DA353A" fill-rule="nonzero" points="27.2198473 24.1666667 25.0076336 33.1566667 48.4763359 24.5533333 27.2198473 24.1666667"/>
                    <polygon id="Stroke-6" stroke="#0C64B3" stroke-width="0.261" points="27.1236641 24.1666667 24.9114504 33.1566667 48.3801527 24.5533333"/>
                    <polyline id="Fill-7" fill="#FFFFFF" fill-rule="nonzero" points="92.9129771 22.33 100.030534 22.33 100.415267 20.7833333 95.5099237 20.7833333 97.9145038 10.9233333 95.5099237 11.6 92.9129771 22.33"/>
                    <path d="M106.090076,14.9833333 C103.012214,14.9833333 100.896183,17.11 100.896183,19.5266667 C100.896183,21.2666667 102.338931,22.4266667 104.551145,22.4266667 C107.629008,22.4266667 109.745038,20.3 109.745038,17.8833333 C109.841221,16.3366667 108.59084,14.9833333 106.090076,14.9833333 M105.89771,16.3366667 C107.244275,16.3366667 107.629008,17.2066667 107.629008,17.98 C107.629008,19.43 106.570992,21.17 104.935878,21.17 C103.877863,21.17 103.20458,20.4933333 103.20458,19.5266667 C103.108397,18.0766667 104.166412,16.3366667 105.89771,16.3366667" id="Fill-8" fill="#FFFFFF" fill-rule="nonzero"/>
                    <path d="M112.438168,22.33 L113.207634,19.0433333 C113.592366,17.4 114.842748,16.4333333 115.80458,16.4333333 C116.670229,16.4333333 116.958779,16.9166667 116.958779,17.4966667 C116.958779,17.7866667 116.862595,18.0766667 116.862595,18.3666667 L115.900763,22.4266667 L118.016794,22.4266667 L118.978626,18.27 C119.074809,17.8833333 119.170992,17.4 119.170992,17.11 C119.170992,15.7566667 118.112977,15.1766667 116.862595,15.1766667 C115.612214,15.1766667 114.458015,15.66 113.592366,16.6266667 L113.784733,15.37 L111.861069,15.7566667 C111.764885,16.3366667 111.668702,16.7233333 111.380153,17.5933333 L110.225954,22.5233333 L112.438168,22.5233333" id="Fill-9" fill="#FFFFFF" fill-rule="nonzero"/>
                    <path d="M127.827481,12.76 L127.154198,15.1766667 C126.769466,15.08 126.192366,14.9833333 125.71145,14.9833333 C122.345038,14.9833333 120.036641,17.3033333 120.036641,19.8166667 C120.036641,21.46 121.19084,22.4266667 122.825954,22.4266667 C123.980153,22.4266667 125.134351,21.9433333 125.903817,20.9766667 L125.71145,22.2333333 L127.731298,22.2333333 C127.827481,21.46 127.923664,20.4933333 128.116031,19.72 L130.039695,11.89 L127.827481,12.76 Z M126.28855,18.7533333 C125.903817,20.2033333 124.749618,21.0733333 123.787786,21.0733333 C122.729771,21.0733333 122.345038,20.3966667 122.345038,19.5266667 C122.345038,17.8833333 123.691603,16.3366667 125.615267,16.3366667 C126.192366,16.3366667 126.577099,16.4333333 126.865649,16.6266667 L126.28855,18.7533333 Z" id="Fill-10" fill="#FFFFFF" fill-rule="nonzero"/>
                    <g id="Group-14" transform="translate(129.270229, 14.693333)" fill="#FFFFFF" fill-rule="nonzero">
                        <path d="M5.77099237,0.29 C2.69312977,0.29 0.480916031,2.41666667 0.480916031,4.83333333 C0.480916031,6.57333333 1.92366412,7.73333333 4.13587786,7.73333333 C7.21374046,7.73333333 9.4259542,5.60666667 9.4259542,3.19 C9.4259542,1.64333333 8.17557252,0.29 5.77099237,0.29 M5.48244275,1.64333333 C6.82900763,1.64333333 7.21374046,2.51333333 7.21374046,3.28666667 C7.21374046,4.73666667 6.15572519,6.47666667 4.52061069,6.47666667 C3.46259542,6.47666667 2.78931298,5.8 2.78931298,4.83333333 C2.78931298,3.38333333 3.75114504,1.64333333 5.48244275,1.64333333" id="Fill-11"/>
                        <path d="M12.0229008,7.63666667 L12.7923664,4.35 C13.1770992,2.70666667 14.4274809,1.74 15.389313,1.74 C16.2549618,1.74 16.5435115,2.22333333 16.5435115,2.80333333 C16.5435115,3.09333333 16.4473282,3.38333333 16.4473282,3.67333333 L15.4854962,7.73333333 L17.6015267,7.73333333 L18.5633588,3.57666667 C18.659542,3.19 18.7557252,2.70666667 18.7557252,2.41666667 C18.7557252,1.06333333 17.6977099,0.483333333 16.4473282,0.483333333 C15.1969466,0.483333333 14.0427481,0.966666667 13.1770992,1.93333333 L13.3694656,0.676666667 L11.4458015,1.06333333 C11.3496183,1.64333333 11.2534351,2.03 10.9648855,2.9 L9.81068702,7.83 L12.0229008,7.83" id="Fill-13"/>
                    </g>
                    <path d="M46.648855,18.3666667 L49.7267176,18.3666667 L49.3419847,15.95 C49.2458015,15.4666667 49.2458015,14.6933333 49.1496183,14.1133333 C48.7648855,14.6933333 48.4763359,15.37 48.0916031,15.95 L46.648855,18.3666667 Z M50.2076336,18.7533333 L45.3984733,20.59 L45.2061069,20.88 L44.2442748,22.4266667 L41.9358779,22.4266667 L48.0916031,12.76 L50.7847328,12.76 L52.3236641,22.4266667 L50.1114504,22.4266667 L49.8229008,19.14 L50.7847328,18.7533333 L50.2076336,18.7533333 Z" id="Fill-15" fill="#FFFFFF" fill-rule="nonzero"/>
                    <path d="M54.9206107,22.4266667 L55.6900763,19.0433333 C56.0748092,17.5933333 57.2290076,16.6266667 58.2870229,16.6266667 C59.0564885,16.6266667 59.4412214,17.0133333 59.4412214,17.5933333 C59.4412214,17.98 59.3450382,18.27 59.3450382,18.56 L58.3832061,22.5233333 L60.4992366,22.5233333 L61.4610687,18.4633333 C61.5572519,18.0766667 61.6534351,17.5933333 61.6534351,17.2066667 C61.6534351,15.95 60.6916031,15.2733333 59.4412214,15.2733333 C58.1908397,15.2733333 57.2290076,15.7566667 56.459542,16.53 L57.5175573,12.2766667 L55.2091603,12.5666667 L52.7083969,22.4266667 L54.9206107,22.4266667" id="Fill-16" fill="#FFFFFF" fill-rule="nonzero"/>
                    <path d="M68.7709924,20.59 C68.0977099,20.88 67.3282443,21.0733333 66.270229,21.0733333 C65.4045802,21.0733333 64.8274809,20.7833333 64.4427481,20.3966667 C64.2503817,20.1066667 64.1541985,19.6233333 64.2503817,19.43 C67.7129771,19.5266667 70.1175573,18.9466667 70.1175573,17.11 C70.1175573,15.95 68.9633588,15.1766667 67.2320611,15.1766667 C64.1541985,15.1766667 62.1343511,17.4966667 62.1343511,19.6233333 C62.1343511,21.3633333 63.2885496,22.5233333 65.789313,22.5233333 C66.8473282,22.5233333 68.0977099,22.33 68.9633588,21.9433333 L68.7709924,20.59 Z M68.0977099,17.0133333 C68.0977099,17.8833333 66.6549618,18.0766667 64.4427481,18.0766667 C64.7312977,17.2066667 65.5969466,16.3366667 66.9435115,16.3366667 C67.6167939,16.3366667 68.0977099,16.6266667 68.0977099,17.0133333 Z" id="Fill-17" fill="#FFFFFF" fill-rule="nonzero"/>
                    <path d="M77.7160305,22.2333333 C77.7160305,21.3633333 77.8122137,20.1066667 78.1007634,19.0433333 L79.0625954,15.37 C78.389313,15.1766667 77.3312977,15.08 76.3694656,15.08 C72.2335878,15.08 70.1175573,17.5933333 70.1175573,20.01 C70.1175573,21.46 71.1755725,22.4266667 72.7145038,22.4266667 C73.8687023,22.4266667 75.0229008,21.9433333 75.8885496,20.6866667 L75.9847328,20.6866667 C75.8885496,21.2666667 75.7923664,21.8466667 75.7923664,22.2333333 L77.7160305,22.2333333 Z M76.080916,18.27 C75.6961832,20.01 74.4458015,21.0733333 73.4839695,21.0733333 C72.5221374,21.0733333 72.2335878,20.4933333 72.2335878,19.72 C72.2335878,18.0766667 73.7725191,16.3366667 75.6961832,16.3366667 C76.080916,16.3366667 76.3694656,16.3366667 76.5618321,16.4333333 L76.080916,18.27 Z" id="Fill-18" fill="#FFFFFF" fill-rule="nonzero"/>
                    <path d="M86.3725191,12.76 L85.6030534,15.2733333 C85.2183206,15.1766667 84.6412214,15.08 84.2564885,15.08 C80.9862595,15.08 78.6778626,17.3033333 78.6778626,19.8166667 C78.6778626,21.3633333 79.8320611,22.4266667 81.3709924,22.4266667 C82.5251908,22.4266667 83.5832061,21.9433333 84.448855,20.9766667 L84.2564885,22.2333333 L86.1801527,22.2333333 C86.2763359,21.46 86.3725191,20.59 86.5648855,19.72 L88.3923664,11.9866667 L86.3725191,12.76 Z M84.7374046,18.7533333 C84.3526718,20.2033333 83.1984733,21.0733333 82.3328244,21.0733333 C81.3709924,21.0733333 80.8900763,20.3966667 80.8900763,19.5266667 C80.8900763,17.98 82.2366412,16.3366667 84.0641221,16.3366667 C84.6412214,16.3366667 85.0259542,16.4333333 85.3145038,16.6266667 L84.7374046,18.7533333 Z" id="Fill-19" fill="#FFFFFF" fill-rule="nonzero"/>
                    <polyline id="Fill-20" fill="#FFFFFF" fill-rule="nonzero" points="87.8152672 19.2366667 93.1053435 17.7866667 88.2 17.7866667 87.8152672 19.2366667"/>
                </g>
            </g>
        </g>
    </g>
</svg>
